<svg aria-hidden="true" style="position:absolute;width:0;height:0;overflow:hidden" xmlns="http://www.w3.org/2000/svg">
<defs>
<symbol id="icon-Frame" viewBox="0 0 33 32">
<path fill="#0460a9" style="fill:var(--color1, #0460a9)" d="M28.706 5.468V4.101A4.1 4.1 0 0 0 24.605 0H12.302v2.734h12.303a1.368 1.368 0 0 1 1.366 1.367v1.367h-8.202a4.1 4.1 0 0 0-4.101 4.101v9.569h-1.203L8.2 22.924v-3.786H4.099a1.37 1.37 0 0 1-1.367-1.367v-1.367H-.002v1.367a4.1 4.1 0 0 0 4.101 4.101h1.367v7.149l8.038-7.149h.164a4.1 4.1 0 0 0 4.101 4.101h4.907l6.028 6.028v-6.028a4.1 4.1 0 0 0 4.101-4.101V10.937c0-2.173-1.64-5.468-4.101-5.468zm1.367 16.403a1.363 1.363 0 0 1-1.366 1.367h-2.734v2.173L23.8 23.238h-6.028a1.365 1.365 0 0 1-1.366-1.367V9.569a1.363 1.363 0 0 1 1.366-1.367h10.936c.437 0 1.367 1.613 1.367 2.734v10.935z"/><path fill="#0460a9" style="fill:var(--color1, #0460a9)" d="m21.98 10.402-4.101 9.569 2.515 1.066.82-1.9h4.101l.82 1.9 2.515-1.066-4.101-9.569h-2.57zm.397 6.001.861-1.996.861 1.996h-1.722zM10.935 10.935V4.1A4.1 4.1 0 0 0 6.834-.001H4.1A4.1 4.1 0 0 0-.001 4.1v6.835A4.1 4.1 0 0 0 4.1 15.036h2.173l2.324 2.337 1.941-1.941-1.244-1.23a4.102 4.102 0 0 0 1.64-3.267zm-8.201 0V4.1a1.363 1.363 0 0 1 1.367-1.367h2.734A1.363 1.363 0 0 1 8.202 4.1v6.835a1.363 1.363 0 0 1-1.367 1.367H4.101a1.37 1.37 0 0 1-1.367-1.367z"/>
</symbol><symbol id="icon-minus" viewBox="0 0 32 32"><path fill="#fff" style="fill:var(--color2, #fff);stroke:var(--color2, #fff)" stroke="#fff" stroke-width="1.82" d="M29.95 16.298c0 7.54-6.112 13.652-13.652 13.652S2.646 23.838 2.646 16.298c0-7.54 6.112-13.652 13.652-13.652S29.95 8.758 29.95 16.298z"/>
<path fill="#0460a9" style="fill:var(--color1, #0460a9)" d="M29.04 16.298c0-7.031-5.711-12.742-12.742-12.742S3.556 9.267 3.556 16.298c0 7.031 5.711 12.742 12.742 12.742S29.04 23.329 29.04 16.298zm-23.168 0c0-5.746 4.68-10.425 10.425-10.425s10.425 4.68 10.425 10.425c0 5.746-4.68 10.425-10.425 10.425S5.872 22.043 5.872 16.298z"/><path fill="none" stroke="#0460a9" style="stroke:var(--color1, #0460a9)" stroke-linecap="round" stroke-width="1.82" d="M16.298 10.837v10.922M21.759 16.298H10.837"/>
</symbol><symbol id="icon-plus" viewBox="0 0 32 32"><path fill="#fff" style="fill:var(--color2, #fff);stroke:var(--color2, #fff)" stroke="#fff" stroke-width="1.82" d="M29.95 15.711c0 7.54-6.112 13.652-13.652 13.652S2.646 23.251 2.646 15.711c0-7.54 6.112-13.652 13.652-13.652S29.95 8.171 29.95 15.711z"/><path fill="#3ea6f9" style="fill:var(--color3, #3ea6f9)" d="M29.04 15.711c0-7.031-5.711-12.742-12.742-12.742S3.556 8.68 3.556 15.711c0 7.031 5.711 12.742 12.742 12.742S29.04 22.742 29.04 15.711zm-23.168 0c0-5.746 4.68-10.425 10.425-10.425s10.425 4.68 10.425 10.425c0 5.746-4.68 10.425-10.425 10.425S5.872 21.456 5.872 15.711z"/><path fill="none" stroke="#0460a9" style="stroke:var(--color1, #0460a9)" stroke-linecap="round" stroke-width="1.82" d="M16.298 15.737v-.043"/><path fill="none" stroke="#3ea6f9" style="stroke:var(--color3, #3ea6f9)" stroke-linecap="round" stroke-width="1.82" d="M21.759 15.711H10.837"/>
</symbol>
</defs>
</svg>