<svg aria-hidden="true" style="position:absolute;width:0;height:0;overflow:hidden" xmlns="http://www.w3.org/2000/svg">
<defs>
<symbol id="icon-Frame" viewBox="0 0 33 32">
<path fill="#0460a9" style="fill:var(--color1, #0460a9)" d="M28.706 5.468V4.101A4.1 4.1 0 0 0 24.605 0H12.302v2.734h12.303a1.368 1.368 0 0 1 1.366 1.367v1.367h-8.202a4.1 4.1 0 0 0-4.101 4.101v9.569h-1.203L8.2 22.924v-3.786H4.099a1.37 1.37 0 0 1-1.367-1.367v-1.367H-.002v1.367a4.1 4.1 0 0 0 4.101 4.101h1.367v7.149l8.038-7.149h.164a4.1 4.1 0 0 0 4.101 4.101h4.907l6.028 6.028v-6.028a4.1 4.1 0 0 0 4.101-4.101V10.937c0-2.173-1.64-5.468-4.101-5.468zm1.367 16.403a1.363 1.363 0 0 1-1.366 1.367h-2.734v2.173L23.8 23.238h-6.028a1.365 1.365 0 0 1-1.366-1.367V9.569a1.363 1.363 0 0 1 1.366-1.367h10.936c.437 0 1.367 1.613 1.367 2.734v10.935z"/><path fill="#0460a9" style="fill:var(--color1, #0460a9)" d="m21.98 10.402-4.101 9.569 2.515 1.066.82-1.9h4.101l.82 1.9 2.515-1.066-4.101-9.569h-2.57zm.397 6.001.861-1.996.861 1.996h-1.722zM10.935 10.935V4.1A4.1 4.1 0 0 0 6.834-.001H4.1A4.1 4.1 0 0 0-.001 4.1v6.835A4.1 4.1 0 0 0 4.1 15.036h2.173l2.324 2.337 1.941-1.941-1.244-1.23a4.102 4.102 0 0 0 1.64-3.267zm-8.201 0V4.1a1.363 1.363 0 0 1 1.367-1.367h2.734A1.363 1.363 0 0 1 8.202 4.1v6.835a1.363 1.363 0 0 1-1.367 1.367H4.101a1.37 1.37 0 0 1-1.367-1.367z"/>
</symbol><symbol id="icon-minus" viewBox="0 0 32 32"><path fill="#fff" style="fill:var(--color2, #fff);stroke:var(--color2, #fff)" stroke="#fff" stroke-width="1.82" d="M29.95 16.298c0 7.54-6.112 13.652-13.652 13.652S2.646 23.838 2.646 16.298c0-7.54 6.112-13.652 13.652-13.652S29.95 8.758 29.95 16.298z"/>
<path fill="#0460a9" style="fill:var(--color1, #0460a9)" d="M29.04 16.298c0-7.031-5.711-12.742-12.742-12.742S3.556 9.267 3.556 16.298c0 7.031 5.711 12.742 12.742 12.742S29.04 23.329 29.04 16.298zm-23.168 0c0-5.746 4.68-10.425 10.425-10.425s10.425 4.68 10.425 10.425c0 5.746-4.68 10.425-10.425 10.425S5.872 22.043 5.872 16.298z"/><path fill="none" stroke="#0460a9" style="stroke:var(--color1, #0460a9)" stroke-linecap="round" stroke-width="1.82" d="M16.298 10.837v10.922M21.759 16.298H10.837"/>
</symbol><symbol id="icon-plus" viewBox="0 0 32 32"><path fill="#fff" style="fill:var(--color2, #fff);stroke:var(--color2, #fff)" stroke="#fff" stroke-width="1.82" d="M29.95 15.711c0 7.54-6.112 13.652-13.652 13.652S2.646 23.251 2.646 15.711c0-7.54 6.112-13.652 13.652-13.652S29.95 8.171 29.95 15.711z"/><path fill="#3ea6f9" style="fill:var(--color3, #3ea6f9)" d="M29.04 15.711c0-7.031-5.711-12.742-12.742-12.742S3.556 8.68 3.556 15.711c0 7.031 5.711 12.742 12.742 12.742S29.04 22.742 29.04 15.711zm-23.168 0c0-5.746 4.68-10.425 10.425-10.425s10.425 4.68 10.425 10.425c0 5.746-4.68 10.425-10.425 10.425S5.872 21.456 5.872 15.711z"/><path fill="none" stroke="#0460a9" style="stroke:var(--color1, #0460a9)" stroke-linecap="round" stroke-width="1.82" d="M16.298 15.737v-.043"/><path fill="none" stroke="#3ea6f9" style="stroke:var(--color3, #3ea6f9)" stroke-linecap="round" stroke-width="1.82" d="M21.759 15.711H10.837"/>
</symbol>
 <symbol id="icon-payout" viewBox="0 0 32 32"><path fill="#fdc93f" style="fill:var(--color1, #fdc93f);stroke:var(--color2, #2a577e)" stroke="#2a577e" stroke-miterlimit="10" stroke-width="1.714" d="M21.322 30.72a8.828 8.828 0 1 0 0-17.656 8.828 8.828 0 0 0 0 17.656z"/><path fill="none" stroke="#2a577e" style="stroke:var(--color2, #2a577e)" stroke-miterlimit="10" stroke-width="1.714" d="M19.429 23.784a1.257 1.257 0 0 0 1.261 1.261h1.261a1.257 1.257 0 0 0 1.261-1.261v-.353a1.264 1.264 0 0 0-.864-1.198l-2.056-.681a1.263 1.263 0 0 1-.864-1.198v-.353a1.257 1.257 0 0 1 1.261-1.261h1.261a1.257 1.257 0 0 1 1.261 1.261M21.322 18.739v-1.892M21.322 25.045v1.892M15.647 21.892h1.261M25.735 21.892h1.261M11.232 24.345a11.346 11.346 0 0 1-9.449-7.527A11.348 11.348 0 0 1 9.971 2a11.356 11.356 0 0 1 11.401 3.994 11.35 11.35 0 0 1 2.402 5.809"/><path fill="none" stroke="#2a577e" style="stroke:var(--color2, #2a577e)" stroke-miterlimit="10" stroke-width="1.714" d="M11.233 20.53a7.562 7.562 0 0 1-5.947-5.159 7.566 7.566 0 0 1 12.92-7.265 7.568 7.568 0 0 1 1.748 3.696M12.494 1.714v3.783M20.52 5.037l-2.674 2.674M4.467 21.091l2.674-2.674M1.143 13.064h3.783M4.466 5.037 7.14 7.711M6.875 26.306l.87 1.69a3.136 3.136 0 0 0 3.069 1.709c.414-.035.817-.15 1.186-.341l1.122-.58"/><path fill="none" stroke="#2a577e" style="stroke:var(--color2, #2a577e)" stroke-miterlimit="10" stroke-width="1.714" d="m6.069 28.86.807-2.554 2.554.82M27.949 11.879l.341-1.892a3.151 3.151 0 0 0-2.522-3.663l-1.261-.227"/><path fill="none" stroke="#2a577e" style="stroke:var(--color2, #2a577e)" stroke-miterlimit="10" stroke-width="1.714" d="m30.149 10.359-2.201 1.526-1.52-2.201"/></symbol>
 <symbol id="icon-rating" viewBox="0 0 37 32"><path fill="#fdc93f" style="fill:var(--color1, #fdc93f);stroke:var(--color2, #2a577e)" stroke="#2a577e" stroke-linejoin="round" stroke-width="1.714" d="M18.435 2.013 15.34 8.765l-7.11.63a.553.553 0 0 0-.463.36.54.54 0 0 0 .13.569l5.214 5.139-1.3 6.706a.546.546 0 0 0 .774.592l6.352-3.165 6.344 3.134a.547.547 0 0 0 .569-.062.543.543 0 0 0 .205-.53l-1.307-6.668 5.222-5.147a.54.54 0 0 0 .148-.6.548.548 0 0 0-.512-.352l-7.11-.63-3.095-6.752a.55.55 0 0 0-.968.023z"/><path fill="none" stroke="#2a577e" style="stroke:var(--color2, #2a577e)" stroke-linejoin="round" stroke-width="1.714" d="m18.285 21.707 2.252 2.319-1.141 6.109c-.016.091-.007.185.025.271a.492.492 0 0 0 .404.316.467.467 0 0 0 .259-.049l5.543-2.888 5.55 2.865a.465.465 0 0 0 .504-.05.508.508 0 0 0 .184-.488l-1.141-6.064 4.556-4.692c.067-.066.114-.15.135-.243s.016-.19-.015-.28c-.031-.09-.087-.169-.16-.226s-.161-.092-.253-.099l-6.208-.576-1.346-3.032M8.851 14.901l-2.235 4.706-5.114.437c-.075.008-.147.036-.206.081s-.104.105-.13.174a.377.377 0 0 0 .093.401l3.788 3.584-.947 4.669a.38.38 0 0 0 .153.374.415.415 0 0 0 .416.041l4.546-2.185 4.546 2.185a.41.41 0 0 0 .415-.04c.058-.043.103-.102.129-.168s.032-.138.017-.208l-.841-4.166"/>
</symbol>
</defs>
</svg>